# xmcd CD database file
#
# Track frame offsets:
#	150
#	15465
#	35057
#	52367
#	66085
#	87712
#	102287
#	118690
#	135937
#	154470
#	175655
#	189695
#
# Disc length: 2705 seconds
#
# Revision: 13
# Processed by: cddbd v1.5.2PL0 Copyright (c) Steve Scherf et al.
# Submitted via: CDex 1.51
#
DISCID=aa0a8f0c
DTITLE=Brazilian Lounge - Brazilian Lounge
DYEAR=2006
DGENRE=Jazz
TTITLE0=Paula Morelenbaum - Brigas Nunca Mais
TTITLE1=Mundo Livre S/A - Meu Esquema - Mundo Livre S
TTITLE2=Luca Mundaca - Ha Dias
TTITLE3=BossaCucaNova feat. Adriana Calcanhotto - Previsao
TTITLE4=Marcos Valle - Agua de Coco
TTITLE5=Bïa - Mariana
TTITLE6=Katia B - Parece Mentira
TTITLE7=BiD feat. Seu Jorge - E Depois...
TTITLE8=Bebel Gilberto - August Day Song (King Britt remix)
TTITLE9=Dois Irmãos feat. Mariana De Moraes - Como Vou Fazer (remix)
TTITLE10=Marcela - Os Grilos
TTITLE11=Marissa - Saudade Fez Um Samba
EXTD=YEAR: 2006
EXTT0=
EXTT1=
EXTT2=
EXTT3=
EXTT4=
EXTT5=
EXTT6=
EXTT7=
EXTT8=
EXTT9=
EXTT10=
EXTT11=
PLAYORDER=
